# xmcd
#
# Track frame offsets:
#	150
#	12092
#	26450
#	40216
#	52754
#	64274
#	74761
#	85669
#	96185
#	105824
#	117021
#	127883
#	138680
#	152924
#	166451
#	182639
#	193013
#	205943
#	220378
#	231732
#	244012
#	255748
#	267800
#	280577
#	292753
#
# Disc length: 4084 seconds
#
# Revision: 1
# Processed by: cddbd v1.5.2PL0 Copyright (c) Steve Scherf et al.
# Submitted via: audiograbber 1.83.01
#
DISCID=620ff219
DTITLE=Various Artist - Classic Field Recordings- Landmark Country Sessions from a Los
DTITLE=t Era, CD C
DYEAR=1900
DGENRE=Country
TTITLE0=Rock City Blues
TTITLE1=Lonesome Life of Worry
TTITLE2=Burning of Cleveland School
TTITLE3=My Sweetheart Has Gone and Left Me
TTITLE4=Girl That Worries My Mind
TTITLE5=Mollie Married a Travelin' Man
TTITLE6=Howell's Railroad
TTITLE7=Lost John
TTITLE8=Fiddle and Guitar Running Wild
TTITLE9=Fox Hunter's Luck
TTITLE10=He Turned Around and Went the Other Way
TTITLE11=Long and Bony
TTITLE12=Farmer Grey
TTITLE13=Whoa, Mule, Whoa
TTITLE14=There are no Dissappointments in Heaven
TTITLE15=Your Soul Never Dies
TTITLE16=T.B. Killed my Daddy
TTITLE17=Little Paper Boy
TTITLE18=Precious Thoughts of Mother
TTITLE19=Shattered Love
TTITLE20=What a Change One Day Can Make
TTITLE21=Forbidden Love
TTITLE22=I Am on My Way to Heaven
TTITLE23=Just Over in the Glory Land
TTITLE24=I'm Glad I counted the Cost
EXTD=
EXTT0=
EXTT1=
EXTT2=
EXTT3=
EXTT4=
EXTT5=
EXTT6=
EXTT7=
EXTT8=
EXTT9=
EXTT10=
EXTT11=
EXTT12=
EXTT13=
EXTT14=
EXTT15=
EXTT16=
EXTT17=
EXTT18=
EXTT19=
EXTT20=
EXTT21=
EXTT22=
EXTT23=
EXTT24=
PLAYORDER=
